<svg width="664" height="200" viewBox="0 0 664 200" fill="none" xmlns="http://www.w3.org/2000/svg"><path d="M144 10.133v10.134H16v16h127.867l.4 10.133.4 10L156 46.667c6.267-5.334 13.6-11.6 16.4-13.734l4.8-4-10.667-9.333c-6-5.2-13.466-11.6-16.666-14.4L144 0z" fill="#d02e2c"/><path d="M82.8 51.067c-14 2.666-24 7.066-33.467 14.8L44.667 69.6H.267l-.134 8-.133 8h15.333c8.4 0 15.334.267 15.334.534 0 .266-1.467 3.066-3.2 6.266-10.667 19.2-9.6 49.733 2.266 70.533 7.734 13.6 34.4 36 36.134 30.4 4-12.666 7.333-32.4 5.6-33.333-8.934-5.067-17.6-19.067-18.934-31.2-2.8-23.733 17.334-45.2 42.4-45.2h10.134l3.466-14.666C110.533 60.8 112 53.6 112 52.8c0-2.933-17.867-4-29.2-1.733m519.867.667c-45.467 9.733-68 58-47.334 101.6 15.734 33.2 62.4 46.266 103.734 28.933l4.8-2L660.4 170c-4.4-13.2-3.867-12.933-11.733-9.066-15.734 7.6-36.134 7.466-50.4-.4-26.8-14.534-28.534-61.2-2.8-79.334 13.6-9.6 38.4-9.866 55.066-.666 2.4 1.466 4.534 2.4 4.8 2.133.134-.267 1.6-4.667 3.2-10s3.2-10.533 3.6-11.467c1.6-4.266-26.266-11.733-42.533-11.466-4.533 0-12.133.933-16.933 2m-388 11.199v11.334l28 .266c30.933.267 34 .934 38.666 8.8 3.467 5.734 3.467 16.134 0 21.867-4.133 6.933-9.466 8.933-25.6 9.467l-14.4.533V86.933h-26.666v49.334c0 27.066-.134 49.733-.267 50.266-.267.667 5.733 1.2 13.333 1.467l13.6.4v-52.133h8.4c8 0 8.4.133 10.934 4.266 1.333 2.4 8.4 14.134 15.733 26l13.333 21.734H304.8c9.467 0 15.2-.534 15.2-1.334s-8.133-13.466-18-28.266C292 144 284.133 131.733 284.267 131.6c.266-.133 3.066-1.6 6.4-3.2C318.4 114.4 319.2 72.133 292 57.733c-7.6-4-18.8-5.333-48.933-5.733l-28.4-.4zm284.666-10.8c-.266.267-.133 10.8.267 23.6.8 24.4.533 25.467-4.933 19.6-12.934-13.6-39.2-11.466-53.2 4.534-17.734 20-15.6 65.066 3.733 80.266 16 12.534 36.267 12.667 48.8.267 6.267-6.133 7.333-5.867 7.333 1.867v6l12-.4 12.134-.267V52l-12.8-.267c-7.067 0-13.067.134-13.334.4m-12.8 58c7.067 3.734 11.867 10.667 12.934 18.934 2.933 23.6-5.2 37.866-21.467 37.866-12.533 0-20-8.4-21.6-24.533-2.4-23.333 13.867-40.667 30.133-32.267M118.667 68.534c-1.6 7.6-3.334 15.066-3.6 16.666-.534 2.133.266 3.334 3.333 4.933 17.867 9.2 24.667 37.6 13.467 56.134q-12.8 21.4-39.2 20.4C82.133 166.267 82 166.4 81.6 169.6c-.267 1.867-1.867 8.667-3.733 15.334-2 7.466-2.667 12.4-1.867 13.2 2.4 2.4 28 2.533 37.333.133 62.4-16.267 77.867-98 25.467-134.4-4.933-3.467-15.2-8.933-16.8-8.933-.133 0-1.6 6.133-3.333 13.6M361.6 86.933c-14.133 2.934-25.067 11.734-31.467 25.334-6 12.666-6.133 37.6-.266 50.266 4.8 10.534 13.733 18.934 24.266 23.2 15.2 6 47.6 2.934 56.934-5.333.8-.8-3.6-18.267-5.067-19.867-.133-.133-3.733 1.334-8 3.2-21.333 9.734-42.533 3.2-46.533-14.533l-.8-3.6H416v-7.067c-.133-35.6-23.733-58-54.4-51.6m19.333 21.334c5.2 3.2 7.867 7.2 9.067 13.6l.933 5.066H370.8c-21.733 0-21.333.134-18.133-7.6 5.2-12.4 18-17.333 28.266-11.066" fill="#d02e2c"/><path d="M85.867 104.267C77.6 107.6 70.933 120 72.533 128.8c5.2 27.467 45.2 24.134 45.2-3.866 0-16-16.8-26.8-31.866-20.667" fill="#d02e2c"/></svg>